<svg width="40" height="44" fill="none" xmlns="http://www.w3.org/2000/svg"><path d="M22.137 38.534c.864-.2 2.134-1.59 2.653-3.025a45.878 45.878 0 0 0 1.063-3.472c-.639-.03-1.277-.064-1.916-.094-.402 2.104-1.015 4.34-1.8 6.591ZM19.968 31.785a48.325 48.325 0 0 1-.574 4.321c-.267 1.613.447 2.792 1.413 2.638.139-.018.281-.037.42-.063a47.157 47.157 0 0 0 1.635-6.79c-.966-.042-1.931-.076-2.893-.11v.004ZM3.953 14.966H.71c-.39 0-.71.319-.71.71v.015c0 .39.32.71.71.71h2.988l.255-1.435ZM39.843 15.732l-23.632-2.037c.203-.672.425-1.341.676-1.999-1.153-.131-2.307-.266-3.46-.398.153-.357.315-.71.48-1.056 1.128.154 2.255.312 3.382.466.384-.894.808-1.774 1.278-2.63-1.387-.278-2.773-.556-4.156-.838.191-.455.406-1.086.549-1.597.184-.726.037-2.758.995-4.908-.105-.019-2.416 3.423-2.491 4.528-.087.282.068 1.184.252 1.838l-.688-.14a32.396 32.396 0 0 0-2.488 6.246l-3.366-.29h-.008l-2.371-.037a.09.09 0 0 0-.09.075L4.697 13l-1.056 5.907c-.011.057.034.106.09.106l2.424-.042h.008l33.676-2.886c.215-.018.215-.334 0-.353h.004ZM24.158 30.67c.658.063 1.32.134 1.977.202.207-.91.368-1.777.492-2.604-.71-.177-1.42-.342-2.127-.5a36.583 36.583 0 0 1-.342 2.897v.004Z" fill="#151515"/><path d="M33.925 21.297a2.428 2.428 0 0 0-1.214-.965s-4.622-1.996-6.042-2.492a12.958 12.958 0 0 0-.463-.15l-6.343.522c-.003.27.05.538.173.793.308.917.124 4.07-3.604 3.412-.022-.004-.04 0-.06-.007a8.434 8.434 0 0 0-2.318-.177 28.85 28.85 0 0 1 .195-3.562l-6.023.496a32.838 32.838 0 0 0-.038 5.23c-2.713 1.924-4.825 4.942-5.524 8.343-.376 1.822-.293 3.54.158 5.035.026-.395.071-.797.158-1.21.808-3.95 4.11-7.147 7.369-7.147 3.261 0 5.25 3.201 4.438 7.15-.624 3.048-2.736 5.645-5.167 6.67.21.016.424.027.642.027 3.416 0 6.806-1.894 9.14-4.757-.43-.455-.655-1.3-.497-2.311.485-2.849.684-5.72.624-8.354.2.023.402.053.605.08 0 .792-.015 1.596-.064 2.423.992.06 1.988.135 2.984.222.131-1.049.218-2.063.263-3.04-.278-.057-.556-.102-.834-.15.879-2.225 3.979-5.502 7.917-2.424a.603.603 0 0 0 .714.022c.894-.612 2.273-1.62 2.273-1.62.7-.454.962-1.322.575-1.995a.85.85 0 0 1-.034-.06l-.003-.004Z" fill="#151515"/></svg>